Coordinates
version=1
nRows=12
nColumns=33
inDegrees=yes

Units are S.I. units (second, meters, Newtons, ...)
Angles are in degrees.

endheader
time	ground_thorax_rot_x	ground_thorax_rot_y	ground_thorax_rot_z	ground_thorax_tx	ground_thorax_ty	ground_thorax_tz	clav_prot_r	clav_elev_r	scapula_abduction_r	scapula_elevation_r	scapula_upward_rot_r	scapula_winging_r	shoulder_elv_r	plane_of_elev_r	axial_rot_r	elbow_flexion_r	pro_sup_r	wrist_flex_r	wrist_dev_r	clav_prot_l	clav_elev_l	scapula_abduction_l	scapula_elevation_l	scapula_upward_rot_l	scapula_winging_l	shoulder_elv_l	plane_of_elev_l	axial_rot_l	elbow_flexion_l	pro_sup_l	wrist_flex_l	wrist_dev_l
      3.00000000	    -27.44586364	    -26.05779171	     42.30303287	    -17.53499021	    824.74807256	    -44.07641075	     26.99849786	    -45.00000000	     39.98300149	    -45.00000000	    -45.00000000	   -103.20904666	  -2803.56988362	     21.97816833	   -150.43437723	   1800.56610117	   -186.30892366	     14.56205025	     13.12633609	      0.30651855	     32.28211438	    -32.42156457	    -45.00000000	    -45.00000000	  -3513.76057647	   -447.84638340	    133.01251001	   -104.43965733	   1790.91433481	     45.46837708	     12.42215002	    -18.62685105
      3.01000000	    -27.73019812	    -25.92950649	     41.78557990	    -20.72977652	    826.19596440	    -43.80590436	     26.95463834	    -45.00000000	     40.05389750	    -45.00000000	    -45.00000000	   -103.34214819	  -2803.49505960	     21.96917238	   -150.54255182	   1800.56336710	   -186.99022452	     14.54220691	     13.23139069	      0.29635556	     32.32460475	    -32.43198726	    -45.00000000	    -45.00000000	  -3513.65243543	   -447.78350810	    133.03447260	   -104.59690895	   1790.89766194	     45.19379130	     12.46217167	    -18.71397310
      3.02000000	    -28.06677673	    -25.71263650	     41.18103253	    -23.87010199	    827.64762648	    -43.53422624	     26.91002835	    -45.00000000	     39.96997373	    -45.00000000	    -45.00000000	   -103.49150993	  -2803.40498903	     22.04652564	   -150.61091164	   1800.54995800	   -187.62013827	     14.57599009	     13.26535321	      0.25876411	     32.39359218	    -32.56565741	    -45.00000000	    -45.00000000	  -3513.47674268	   -447.77447349	    133.00999626	   -104.67810766	   1790.87370027	     44.89869796	     12.52208860	    -18.84660428
      3.03000000	    -28.36159243	    -25.56847581	     40.65359393	    -26.95265895	    829.10684759	    -43.26371134	     26.87665472	    -45.00000000	     40.01507125	    -45.00000000	    -45.00000000	   -103.64604367	  -2803.35043778	     22.05965256	   -150.69184869	   1800.53607174	   -188.23122907	     14.57623786	     13.35405113	      0.23380663	     32.44462929	    -32.58140110	    -45.00000000	    -45.00000000	  -3513.36458100	   -447.70735199	    133.02638005	   -104.79442679	   1790.85581145	     44.57774413	     12.56381727	    -18.94175746
      3.04000000	    -28.74506444	    -25.30284855	     40.03366093	    -29.96690411	    830.57544747	    -42.99945818	     26.84507831	    -45.00000000	     39.83472238	    -45.00000000	    -45.00000000	   -103.81929062	  -2803.27352058	     22.17504989	   -150.76852322	   1800.52122229	   -188.80499956	     14.64161505	     13.35649586	      0.18788319	     32.48185613	    -32.77797005	    -45.00000000	    -45.00000000	  -3513.14951480	   -447.70324539	    132.97260316	   -104.81837078	   1790.86358939	     44.24963674	     12.62283258	    -19.10989602
      3.05000000	    -29.00001628	    -25.13254723	     39.46135131	    -32.91244102	    832.05952646	    -42.74492229	     26.80426599	    -45.00000000	     39.90220108	    -45.00000000	    -45.00000000	   -103.94357923	  -2803.20112267	     22.19839729	   -150.86081463	   1800.49150172	   -189.36806891	     14.64997417	     13.43665475	      0.18323686	     32.51831162	    -32.77791489	    -45.00000000	    -45.00000000	  -3513.08574099	   -447.65354088	    132.99861251	   -104.92221634	   1790.80585714	     43.91542642	     12.65355291	    -19.17200091
      3.06000000	    -29.28374386	    -24.94062224	     38.93222558	    -35.78877272	    833.56412839	    -42.50428202	     26.75721914	    -45.00000000	     39.88992049	    -45.00000000	    -45.00000000	   -104.09622508	  -2803.11147067	     22.20497240	   -150.86412000	   1800.47517684	   -189.91700265	     14.69131230	     13.47138097	      0.16928381	     32.56703804	    -32.84800309	    -45.00000000	    -45.00000000	  -3512.97142851	   -447.62914169	    132.99946150	   -105.03523050	   1790.78124421	     43.56833603	     12.67694840	    -19.25876816
      3.07000000	    -29.64147377	    -24.75135480	     38.30722685	    -38.59499115	    835.09166324	    -42.27993838	     26.73222950	    -45.00000000	     39.82293851	    -45.00000000	    -45.00000000	   -104.25505310	  -2803.10764998	     22.30468040	   -150.92093163	   1800.42656646	   -190.44959827	     14.75449954	     13.52597550	      0.11481248	     32.60154242	    -32.94998822	    -45.00000000	    -45.00000000	  -3512.75601309	   -447.60481485	    132.94557437	   -105.10170898	   1790.78142340	     43.22076155	     12.72552171	    -19.39965126
      3.08000000	    -29.82099760	    -24.56446785	     37.85479472	    -41.33387905	    836.64349845	    -42.07350954	     26.67218160	    -45.00000000	     39.88297255	    -45.00000000	    -45.00000000	   -104.37656433	  -2802.98971257	     22.26537529	   -150.93969644	   1800.43062133	   -190.98611976	     14.76906106	     13.56731048	      0.14098003	     32.63260525	    -32.93090497	    -45.00000000	    -45.00000000	  -3512.75062253	   -447.54191632	    133.00604348	   -105.19071839	   1790.72318465	     42.86894682	     12.73568734	    -19.41626087
      3.09000000	    -30.13011775	    -24.34937104	     37.27323565	    -44.01595671	    838.22423899	    -41.88484714	     26.64558577	    -45.00000000	     39.81203405	    -45.00000000	    -45.00000000	   -104.51204852	  -2802.93003739	     22.31921671	   -150.92403082	   1800.40742736	   -191.50615100	     14.85485907	     13.57453634	      0.09732288	     32.68929690	    -33.04879386	    -45.00000000	    -45.00000000	  -3512.57489579	   -447.54587869	    132.97462435	   -105.25575583	   1790.69223564	     42.51944905	     12.77773080	    -19.52447155
      3.10000000	    -30.38186268	    -24.13725501	     36.72768536	    -46.64030122	    839.83224224	    -41.71530910	     26.58897369	    -45.00000000	     39.81017004	    -45.00000000	    -45.00000000	   -104.66476415	  -2802.87920281	     22.34194924	   -150.94417784	   1800.37675106	   -192.01312284	     14.91985154	     13.61602152	      0.08303557	     32.71497383	    -33.08971498	    -45.00000000	    -45.00000000	  -3512.48598534	   -447.51505886	    132.96349905	   -105.30460167	   1790.67169711	     42.17575439	     12.81020973	    -19.59719982
      3.11000000	    -30.56259848	    -23.93323660	     36.28559069	    -49.20988810	    841.47005065	    -41.56521022	     26.54668598	    -45.00000000	     39.81536686	    -45.00000000	    -45.00000000	   -104.76741004	  -2802.76491444	     22.32286116	   -150.98401882	   1800.37986731	   -192.53145235	     14.98268263	     13.63146288	      0.07191730	     32.75968195	    -33.11209004	    -45.00000000	    -45.00000000	  -3512.41047674	   -447.46498962	    132.99219500	   -105.39863620	   1790.62827141	     41.83549599	     12.82498360	    -19.63745097
